# xmcd
#
# Track frame offsets:
#	150
#	15293
#	28158
#	36552
#	46408
#	56732
#	68408
#	77693
#	87953
#	94570
#	109331
#	126174
#	134489
#	141630
#	153932
#
# Disc length: 2274 seconds
#
# Revision: 0
# Processed by: cddbd v1.5.1PL2 Copyright (c) Steve Scherf et al.
# Submitted via: EasyCDDAExtractor 8.2.1.1
#
DISCID=cb08e00f
DTITLE=Caine and Haasband - Mysionari
DYEAR=2005
DGENRE=Blues
TTITLE0=Mysionari
TTITLE1=Advent
TTITLE2=Duchovni zazitek
TTITLE3=Dest
TTITLE4=Hrdina
TTITLE5=Sneni v zastoupeni
TTITLE6=Pravo na navrat
TTITLE7=Byl to sen
TTITLE8=O rybách a lidech
TTITLE9=Gastronomicke zpravy: Apokalypsa!
TTITLE10=Moje zena je verici
TTITLE11=Ku vlaku!
TTITLE12=Qui guide... (intro)
TTITLE13=Qui guide mon cheval
TTITLE14=C'pptain Kirk (30 ans apres)
EXTD=
EXTT0=
EXTT1=
EXTT2=
EXTT3=
EXTT4=
EXTT5=
EXTT6=
EXTT7=
EXTT8=
EXTT9=
EXTT10=
EXTT11=
EXTT12=
EXTT13=
EXTT14=
PLAYORDER=
